<svg width="24px" height="24px" viewBox="0 0 24 24" preserveAspectRatio="xMinYMin meet" version="1.1" xmlns="http://www.w3.org/2000/svg" xmlns:xlink="http://www.w3.org/1999/xlink">
    <desc>Lisez! icon: Search engine</desc>
    <defs></defs>
    <g id="icon-user" stroke="#333333" stroke-width="1" fill="none" fill-rule="evenodd" stroke-linejoin="round">
        <path d="M10,15 C10,15 8.5,14.5 8.5,12 C7.674,12 7.674,10 8.5,10 C8.5,9.665 7,6 9.5,6.5 C10,4.5 15.5,4.5 16,6.5 C16.347,7.888 15.5,9.754 15.5,10 C16.326,10 16.326,12 15.5,12 C15.5,14.5 14,15 14,15 L14,17.5 C16.477,18.429 18.93,19.197 20.186,20.075 C22.234,17.999 23.5,15.148 23.5,12 C23.5,5.648 18.352,0.5 12,0.5 C5.648,0.5 0.5,5.648 0.5,12 C0.5,15.153 1.77,18.009 3.825,20.087 C5.155,19.167 7.777,18.341 10,17.5 L10,15 L10,15 Z" id="Stroke-528"></path>
        <path d="M3.8252,20.0869 C5.9102,22.1939 8.8022,23.4999 12.0002,23.4999 C15.2032,23.4999 18.0992,22.1899 20.1852,20.0749" id="Stroke-529"></path>
    </g>
</svg>